<svg height="512" viewBox="0 0 512 512" width="512" xmlns="http://www.w3.org/2000/svg"><g id="Planting-5" data-name="Planting"><g id="Flat"><path d="m152.871 198.79c-33.173-18.069-57.558-68.639-58.579-70.783a8.085 8.085 0 0 1 6.2-11.376c2.356-.3 58.067-7.244 91.239 10.826 44.673 24.335 35.91 51.9 30.068 62.628-11.885 20.967-42.514 23.093-68.928 8.705z" fill="#81c784"/><path d="m206.838 137.29a107.763 107.763 0 0 1 -81.02 38.687c7.969 9.07 17.116 17.4 27.053 22.813 26.414 14.388 57.043 12.262 68.924-8.7 5.065-9.303 12.318-31.264-14.957-52.8z" fill="#66bb6a"/><path d="m296.668 136.841c-21.768-27.7-7.8-55.837 19.6-77.368 33.773-26.541 99.716-26.569 102.5-26.557a8.1 8.1 0 0 1 7.748 9.858c-.649 2.714-16.264 66.772-50.036 93.312-27.048 21.254-58.088 28.397-79.812.755z" fill="#81c784"/><path d="m340 112a107.494 107.494 0 0 1 -52.674-13.7c-3.215 12.46-.869 25.55 9.342 38.544 21.724 27.642 52.764 20.5 79.81-.755 15.838-12.447 27.683-33.146 35.864-51.9a107.6 107.6 0 0 1 -72.342 27.811z" fill="#66bb6a"/><path d="m184.279 92.432c-26.7-24.942-34.314-81.018-34.625-83.392a8.087 8.087 0 0 1 8.43-9.024c2.391.149 58.855 3.941 85.552 28.883 22.73 21.237 30.893 46.456 9.99 68.828-20.882 22.349-46.983 15.599-69.347-5.295z" fill="#81c784"/><path d="m180 80c-2.082 0-4.148-.065-6.2-.181a70.852 70.852 0 0 0 10.48 12.613c22.364 20.893 48.465 27.644 69.347 5.3 15.4-16.477 15.01-34.5 4.665-51.335a107.693 107.693 0 0 1 -78.292 33.603z" fill="#66bb6a"/><path d="m363.058 73.709-112 88 9.884 12.582 112-88c7.508-5.891-1.25-19.504-9.884-12.582z" fill="#e58b6c"/><path d="m169.826 151.96c-9.536-5.191-16.472 9.252-7.652 14.052l90 49.014 7.652-14.052z" fill="#e58b6c"/><path d="m213.122 41.854a8 8 0 0 0 -10.244 12.292 125.064 125.064 0 0 1 45.122 96.336v97.518h16v-97.518a141.024 141.024 0 0 0 -50.878-108.628z" fill="#f09b73"/><g fill="#c8e6c9"><circle cx="388" cy="52" r="12"/><circle cx="392" cy="80" r="8"/><circle cx="180" cy="20" r="12"/><circle cx="184" cy="48" r="8"/><circle cx="116.974" cy="135.651" r="12"/><circle cx="143.998" cy="143.998" r="8"/></g><path d="m248 213.943v34.057h16v-45.381a36.063 36.063 0 0 1 -16 11.324z" fill="#e58b6c"/><path d="m432 512h-352a80.091 80.091 0 0 1 -80-80c0-43.146 26.77-73.764 75.536-86.625 10.499-35.308 43.635-57.45 80.464-57.375h15.386c18.76-31 48.633-48 84.614-48 37.35 0 70.149 17.851 88.693 48h11.307c36.441-.131 70.008 24.672 80.46 59.891 50.133 13.021 75.54 41.3 75.54 84.109a80.091 80.091 0 0 1 -80 80z" fill="#9c7b70"/><path d="m436.46 347.891a84.312 84.312 0 0 0 -40.4-49.547 316.7 316.7 0 0 1 -204.568 213.656h240.508a80.091 80.091 0 0 0 80-80c0-42.809-25.407-71.088-75.54-84.109z" fill="#876559"/><path d="m249.906 457.3a8 8 0 0 1 -3.224-3.237c-20.967-38.933-26.4-94.807 7.044-128.243l73.539-73.54a8.06 8.06 0 0 1 11.314 0l113.137 113.141a8.078 8.078 0 0 1 0 11.314l-73.54 73.539c-37.37 37.359-97.131 23.957-128.27 7.026z" fill="#e2dbd5"/><path d="m406.461 252.284-101.823 101.824a32 32 0 0 0 45.254 45.254l101.824-101.823z" fill="#d4ccc7"/><path d="m440.4 297.539-33.939-33.939a8 8 0 0 1 0-11.314l50.912-50.911a32.13 32.13 0 0 1 45.254 0c12.233 12.232 12.386 33.008 0 45.254l-50.911 50.912a8 8 0 0 1 -11.316-.002z" fill="#f09b73"/><path d="m460 264a83.6 83.6 0 0 1 -49.27-15.985l-4.269 4.269a8 8 0 0 0 0 11.314l33.939 33.941a8 8 0 0 0 11.314 0l39.593-39.593a83.737 83.737 0 0 1 -31.307 6.054z" fill="#e58b6c"/><circle cx="476" cy="212" fill="#f2bba5" r="12"/><circle cx="480" cy="240" fill="#f2bba5" r="8"/><circle cx="54.632" cy="403.029" fill="#bcaaa4" r="16"/><circle cx="80.814" cy="430.172" fill="#bcaaa4" r="10.667"/><circle cx="396" cy="292" fill="#efebe8" r="12"/><circle cx="400" cy="320" fill="#efebe8" r="8"/><path d="m336 360a176.863 176.863 0 0 1 -33.728-3.242 32 32 0 0 0 47.62 42.6l52.208-52.207a175.488 175.488 0 0 1 -66.1 12.849z" fill="#c6bab3"/><path d="m231.156 407.193a144.192 144.192 0 0 0 15.526 46.874 8 8 0 0 0 3.224 3.237c31.139 16.927 90.9 30.329 128.27-7.03l71.267-71.266c-65.032 35.552-144.573 46.358-218.287 28.185z" fill="#d4ccc7"/><path d="m312 444a35.823 35.823 0 0 1 -9.52 24.35 79.807 79.807 0 0 1 -43.5-5.113l-92.772-38.672a15.976 15.976 0 0 1 -8.736-23.625 35.962 35.962 0 0 1 40.209-15.61 48.007 48.007 0 0 1 90.319 22.67c0 .68-.01 1.36-.04 2.03a35.97 35.97 0 0 1 24.04 33.97z" fill="#a1887f"/><path d="m295.536 413.744a99.988 99.988 0 0 1 -141.3-6.23 35.823 35.823 0 0 0 -2.236 12.486c0 19.47 16 28 34.864 35.982 0 0 88.425 24.018 89.136 24.018a36.012 36.012 0 0 0 19.536-66.256z" fill="#9c7b70"/><path d="m75.642 345.043c18.714.898 28.358 16.981 28.358 23.957a8 8 0 0 0 16 0c0-14.676-14.515-35.318-37.881-39.308a78.208 78.208 0 0 0 -6.477 15.351z" fill="#876559"/><path d="m157.992 328h.008a8 8 0 0 0 8-7.991c0-.2.1-18.154 5.253-32.006h-15.253c-.522 0-1.041.018-1.562.026a130.859 130.859 0 0 0 -4.438 31.971 8 8 0 0 0 7.992 8z" fill="#876559"/></g></g></svg>