<?xml version="1.0"?>
<svg xmlns="http://www.w3.org/2000/svg" height="512px" viewBox="0 0 512 512" width="512px" class=""><g transform="matrix(0.581167 0 0 0.581167 107.221 107.221)"><g id="Barrow"><g id="Flat"><path d="m455.976 228.916h-299.356c-1.491 2.179-1.81 3.522-.853 5.983l21.087 54.23a8 8 0 0 0 4.993 4.712c2.375.769 159.809 52.059 162.153 52.059a8 8 0 0 0 5.693-2.379l104.595-105.9a8 8 0 0 0 1.688-8.705z" fill="#e2dbd5" data-original="#E2DBD5"/><path d="m455.976 228.916h-86.018a224.536 224.536 0 0 1 -116.635 88.133c42.89 13.884 89.411 28.851 90.677 28.851a8 8 0 0 0 5.693-2.379l104.595-105.9a8 8 0 0 0 1.688-8.705z" fill="#d9d1cc" data-original="#D9D1CC"/><path d="m488.13 200a7.469 7.469 0 0 1 -2.24 5.62l-33.96 34.38h-294.18l-14.43-37.1a7.635 7.635 0 0 1 -.54-2.9z" fill="#81c784" data-original="#81C784"/><path d="m386.431 200a224 224 0 0 1 -24.448 40h89.947l33.96-34.38a7.469 7.469 0 0 0 2.24-5.62z" fill="#66bb6a" data-original="#66BB6A" class=""/><circle cx="432" cy="400" fill="#424242" r="80" data-original="#424242" class=""/><circle cx="432" cy="400" fill="#333" r="48" data-original="#333" class=""/><circle cx="432" cy="400" fill="#1f1f1f" r="24" data-original="#1F1F1F" class=""/><path d="m248.845 340.422-60.418 120.835-20.5-150.338-15.854 2.162 20.938 153.545c1.753 14.05 21.949 17.735 28.279 4.682l61.865-123.73z" fill="#c4bcb7" data-original="#C4BCB7"/><path d="m429.538 407.611-275.617-89.17-56.015-144.041-92.436-30.811a8 8 0 1 1 5.06-15.178l99.564 33.189 55.985 143.959 268.383 86.831a8 8 0 0 1 -4.924 15.222z" fill="#e2dbd5" data-original="#E2DBD5"/><path d="m351.773 52.831c-24.562-29.476-70.036-27.241-91.886 3.606l-98.415 138.939 308.674-.5z" fill="#f09b73" data-original="#F09B73"/><path d="m373 78.3c-40.781 60.357-114.511 96.963-191.271 88.488l-20.252 28.591 308.674-.5z" fill="#e58b6c" data-original="#E58B6C"/><circle cx="308" cy="68" fill="#f2bba5" r="20" data-original="#F2BBA5"/><circle cx="276" cy="108" fill="#f2bba5" r="12" data-original="#F2BBA5"/><circle cx="216" cy="272" fill="#efebe8" r="16" data-original="#EFEBE8" class="active-path" style="fill:#EFEBE8"/><circle cx="256" cy="280" fill="#efebe8" r="8" data-original="#EFEBE8" class="active-path" style="fill:#EFEBE8"/><path d="m488 208h-344a8 8 0 0 1 0-16h344a8 8 0 0 1 0 16z" fill="#e2dbd5" data-original="#E2DBD5"/></g></g></g> </svg>
