<?xml version="1.0"?>
<svg xmlns="http://www.w3.org/2000/svg" height="512px" viewBox="0 0 512 512" width="512px" class=""><g transform="matrix(0.587037 0 0 0.587037 105.719 105.719)"><g id="Watering_Can" data-name="Watering Can"><g id="Flat"><path d="m162.53 265.053c-2.385-.8-42.53-13.917-42.53-13.917v83.575s39.779-13.011 42.53-13.928a8 8 0 0 0 5.47-7.589v-40.552a8 8 0 0 0 -5.47-7.589z" fill="#ea6049" data-original="#EA6049"/><path d="m120 344a8 8 0 0 1 -8-8v-88a8 8 0 0 1 16 0v88a8 8 0 0 1 -8 8z" fill="#f27c6d" data-original="#F27C6D"/><path d="m380.091 47.816-21.9 39.423 38.864 32.425 25.389-48c8.016-15.425 32.939-3.662 24.244 12.822l-31.648 59.826 36.332 29.893 36.844-66.319c39.262-70.645-68.635-130.762-108.125-60.07z" fill="#cf3f30" data-original="#CF3F30"/><path d="m160 264.713v56.41l152 20.276v-96.962z" fill="#de513e" data-original="#DE513E" class=""/><path d="m310.085 361.877-129.213-154.641a8 8 0 0 1 .482-10.786l152.93-152.93a8 8 0 0 1 10.787-.483l154.576 129.163c15.314 12.934 16.4 37.315 2.092 51.474l-140.239 140.226c-14.164 14.315-38.554 13.2-51.415-2.023z" fill="#ea6049" data-original="#EA6049"/><path d="m499.647 172.2-84.628-70.712c.637 7.423.981 14.929.981 22.517a259.8 259.8 0 0 1 -121.041 219.77l15.126 18.1c12.861 15.224 37.251 16.338 51.419 2.027l140.235-140.233c14.307-14.159 13.222-38.54-2.092-51.469z" fill="#de513e" data-original="#DE513E" class=""/><path d="m158.915 207.576-17.361-17.362a8 8 0 0 1 0-11.313l176.825-176.826a8 8 0 0 1 11.314 0l17.362 17.361a24.03 24.03 0 0 1 0 33.941l-154.2 154.2a24.029 24.029 0 0 1 -33.94-.001z" fill="#f27c6d" data-original="#F27C6D"/><path d="m291.882 180.118a7.971 7.971 0 0 1 -5.657-2.344l-136.686-136.686c-22.37-22.654 11.88-55.979 33.941-33.941l136.687 136.686a8 8 0 0 1 0 11.314l-22.628 22.627a7.977 7.977 0 0 1 -5.657 2.344z" fill="#ea6049" data-original="#EA6049"/><path d="m307.969 359.345 189.211-189.211-12.327-10.301-187.185 187.185z" fill="#cf3f30" data-original="#CF3F30"/><g fill="#90caf9"><circle cx="72" cy="280" r="8" data-original="#90CAF9" class=""/><circle cx="40" cy="296" r="8" data-original="#90CAF9" class=""/><circle cx="24" cy="328" r="8" data-original="#90CAF9" class=""/><circle cx="80" cy="312" r="8" data-original="#90CAF9" class=""/><circle cx="56" cy="336" r="8" data-original="#90CAF9" class=""/><circle cx="56" cy="368" r="8" data-original="#90CAF9" class=""/><circle cx="24" cy="368" r="8" data-original="#90CAF9" class=""/><circle cx="56" cy="408" r="8" data-original="#90CAF9" class=""/><circle cx="24" cy="408" r="8" data-original="#90CAF9" class=""/><circle cx="40" cy="504" r="8" data-original="#90CAF9" class=""/><circle cx="72" cy="504" r="8" data-original="#90CAF9" class=""/><circle cx="8" cy="504" r="8" data-original="#90CAF9" class=""/><circle cx="40" cy="456" r="8" data-original="#90CAF9" class=""/><circle cx="72" cy="456" r="8" data-original="#90CAF9" class=""/><circle cx="8" cy="456" r="8" data-original="#90CAF9" class=""/></g><path d="m320.167 143.833-48.257-48.257a75.7 75.7 0 0 1 -20 47.886l34.313 34.312a8 8 0 0 0 11.314 0l22.628-22.627a8 8 0 0 0 0-11.314z" fill="#de513e" data-original="#DE513E" class=""/><path d="m272 168c0-35.309 43.007-53.563 68.284-28.284a39.977 39.977 0 0 1 0 56.568c-24.963 24.965-68.284 7.477-68.284-28.284z" fill="#cf3f30" data-original="#CF3F30"/><circle cx="312" cy="168" fill="#fff" r="8" data-original="#FFF" class="active-path" style="fill:#fff" data-old_color="#fff"/><circle cx="261.333" cy="234.667" fill="#f27c6d" r="18.667" data-original="#F27C6D"/><circle cx="308.333" cy="243.667" fill="#f27c6d" r="11.667" data-original="#F27C6D"/></g></g></g> </svg>
